<svg width="131" height="306" viewBox="0 0 131 306" fill="none" xmlns="http://www.w3.org/2000/svg">
<g filter="url(#filter0_dii)">
<path d="M96.6469 15.3725C94.9827 12.507 91.3038 11.5239 88.5011 13.2918C65.6423 27.7113 46.6732 47.576 33.3177 71.1436C18.975 96.4533 11.6227 125.123 12.0149 154.211C12.4072 183.3 20.5298 211.761 35.5498 236.674C49.536 259.873 69.0338 279.219 92.2732 293.017C95.1225 294.709 98.7735 293.627 100.36 290.718L118.169 258.057C119.755 255.148 118.673 251.517 115.851 249.781C100.261 240.191 87.1646 226.996 77.6849 211.272C67.1709 193.832 61.485 173.91 61.2104 153.548C60.9359 133.186 66.0825 113.117 76.1224 95.4005C85.1746 79.4266 97.911 65.8829 113.236 55.8765C116.011 54.0648 116.994 50.4059 115.33 47.5405L96.6469 15.3725Z" fill="url(#paint0_radial)" fill-opacity="0.5"/>
</g>
<defs>
<filter id="filter0_dii" x="0" y="0.408447" width="130.903" height="305.412" filterUnits="userSpaceOnUse" color-interpolation-filters="sRGB">
<feFlood flood-opacity="0" result="BackgroundImageFix"/>
<feColorMatrix in="SourceAlpha" type="matrix" values="0 0 0 0 0 0 0 0 0 0 0 0 0 0 0 0 0 0 127 0"/>
<feMorphology radius="8" operator="erode" in="SourceAlpha" result="effect1_dropShadow"/>
<feOffset/>
<feGaussianBlur stdDeviation="10"/>
<feColorMatrix type="matrix" values="0 0 0 0 0.375 0 0 0 0 0.375 0 0 0 0 0.375 0 0 0 0.2 0"/>
<feBlend mode="normal" in2="BackgroundImageFix" result="effect1_dropShadow"/>
<feBlend mode="normal" in="SourceGraphic" in2="effect1_dropShadow" result="shape"/>
<feColorMatrix in="SourceAlpha" type="matrix" values="0 0 0 0 0 0 0 0 0 0 0 0 0 0 0 0 0 0 127 0" result="hardAlpha"/>
<feOffset/>
<feGaussianBlur stdDeviation="10"/>
<feComposite in2="hardAlpha" operator="arithmetic" k2="-1" k3="1"/>
<feColorMatrix type="matrix" values="0 0 0 0 0.15 0 0 0 0 0.15 0 0 0 0 0.15 0 0 0 0.9 0"/>
<feBlend mode="normal" in2="shape" result="effect2_innerShadow"/>
<feColorMatrix in="SourceAlpha" type="matrix" values="0 0 0 0 0 0 0 0 0 0 0 0 0 0 0 0 0 0 127 0" result="hardAlpha"/>
<feOffset dx="-1" dy="1"/>
<feGaussianBlur stdDeviation="0.5"/>
<feComposite in2="hardAlpha" operator="arithmetic" k2="-1" k3="1"/>
<feColorMatrix type="matrix" values="0 0 0 0 1 0 0 0 0 1 0 0 0 0 1 0 0 0 0.5 0"/>
<feBlend mode="normal" in2="effect2_innerShadow" result="effect3_innerShadow"/>
</filter>
<radialGradient id="paint0_radial" cx="0" cy="0" r="1" gradientUnits="userSpaceOnUse" gradientTransform="translate(175.486 152.514) rotate(90) scale(163.486)">
<stop offset="0.71875" stop-color="#4D4D4D"/>
<stop offset="1" stop-color="#382900"/>
</radialGradient>
</defs>
</svg>
