<svg width="180" height="86" viewBox="0 0 180 86" fill="none" xmlns="http://www.w3.org/2000/svg">
<g filter="url(#filter0_dii)">
<path d="M166.6 37.8101C168.206 34.9119 167.164 31.2494 164.209 29.75C141.24 18.0952 115.821 12.0012 90.0078 12C64.1948 11.9988 38.7751 18.0903 15.805 29.743C12.8498 31.2421 11.8069 34.9045 13.4131 37.8029L31.445 70.3404C33.0512 73.2388 36.6968 74.271 39.6751 72.8184C55.3277 65.184 72.5379 61.1992 90.0054 61.2C107.473 61.2008 124.683 65.1873 140.335 72.8231C143.313 74.276 146.958 73.2442 148.565 70.3459L166.6 37.8101Z" fill="url(#paint0_radial)" fill-opacity="0.8"/>
</g>
<defs>
<filter id="filter0_dii" x="0.660767" y="0" width="178.692" height="85.4767" filterUnits="userSpaceOnUse" color-interpolation-filters="sRGB">
<feFlood flood-opacity="0" result="BackgroundImageFix"/>
<feColorMatrix in="SourceAlpha" type="matrix" values="0 0 0 0 0 0 0 0 0 0 0 0 0 0 0 0 0 0 127 0"/>
<feMorphology radius="8" operator="erode" in="SourceAlpha" result="effect1_dropShadow"/>
<feOffset/>
<feGaussianBlur stdDeviation="10"/>
<feColorMatrix type="matrix" values="0 0 0 0 0.972549 0 0 0 0 0.618715 0 0 0 0 0 0 0 0 0.2 0"/>
<feBlend mode="normal" in2="BackgroundImageFix" result="effect1_dropShadow"/>
<feBlend mode="normal" in="SourceGraphic" in2="effect1_dropShadow" result="shape"/>
<feColorMatrix in="SourceAlpha" type="matrix" values="0 0 0 0 0 0 0 0 0 0 0 0 0 0 0 0 0 0 127 0" result="hardAlpha"/>
<feOffset/>
<feGaussianBlur stdDeviation="10"/>
<feComposite in2="hardAlpha" operator="arithmetic" k2="-1" k3="1"/>
<feColorMatrix type="matrix" values="0 0 0 0 1 0 0 0 0 0.636666 0 0 0 0 0 0 0 0 0.9 0"/>
<feBlend mode="normal" in2="shape" result="effect2_innerShadow"/>
<feColorMatrix in="SourceAlpha" type="matrix" values="0 0 0 0 0 0 0 0 0 0 0 0 0 0 0 0 0 0 127 0" result="hardAlpha"/>
<feOffset dx="-1" dy="1"/>
<feGaussianBlur stdDeviation="0.5"/>
<feComposite in2="hardAlpha" operator="arithmetic" k2="-1" k3="1"/>
<feColorMatrix type="matrix" values="0 0 0 0 1 0 0 0 0 1 0 0 0 0 1 0 0 0 0.5 0"/>
<feBlend mode="normal" in2="effect2_innerShadow" result="effect3_innerShadow"/>
</filter>
<radialGradient id="paint0_radial" cx="0" cy="0" r="1" gradientUnits="userSpaceOnUse" gradientTransform="translate(89.4859 176.514) rotate(90) scale(163.486)">
<stop offset="0.71875" stop-color="#FFA300"/>
<stop offset="1" stop-color="#5B3A00"/>
</radialGradient>
</defs>
</svg>
