<svg width="129" height="171" viewBox="0 0 129 171" fill="none" xmlns="http://www.w3.org/2000/svg">
<g filter="url(#filter0_dii)">
<path d="M110.854 158.788C114.165 158.93 116.975 156.361 116.997 153.047C117.175 125.195 110.255 97.7197 96.8457 73.2319C83.4365 48.7441 64.0148 28.1147 40.4522 13.2624C37.6489 11.4954 33.9704 12.4797 32.3071 15.3458L13.6348 47.5201C11.9715 50.3861 12.9564 54.0446 15.7316 55.8554C31.5435 66.172 44.5945 80.2486 53.692 96.8624C62.7895 113.476 67.6198 132.054 67.7951 150.933C67.8258 154.247 70.3778 157.047 73.6885 157.19L110.854 158.788Z" fill="url(#paint0_radial)" fill-opacity="0.5"/>
</g>
<defs>
<filter id="filter0_dii" x="0.822449" y="0.380127" width="128.178" height="170.413" filterUnits="userSpaceOnUse" color-interpolation-filters="sRGB">
<feFlood flood-opacity="0" result="BackgroundImageFix"/>
<feColorMatrix in="SourceAlpha" type="matrix" values="0 0 0 0 0 0 0 0 0 0 0 0 0 0 0 0 0 0 127 0"/>
<feMorphology radius="8" operator="erode" in="SourceAlpha" result="effect1_dropShadow"/>
<feOffset/>
<feGaussianBlur stdDeviation="10"/>
<feColorMatrix type="matrix" values="0 0 0 0 0.575 0 0 0 0 0.365803 0 0 0 0 0 0 0 0 0.2 0"/>
<feBlend mode="normal" in2="BackgroundImageFix" result="effect1_dropShadow"/>
<feBlend mode="normal" in="SourceGraphic" in2="effect1_dropShadow" result="shape"/>
<feColorMatrix in="SourceAlpha" type="matrix" values="0 0 0 0 0 0 0 0 0 0 0 0 0 0 0 0 0 0 127 0" result="hardAlpha"/>
<feOffset/>
<feGaussianBlur stdDeviation="10"/>
<feComposite in2="hardAlpha" operator="arithmetic" k2="-1" k3="1"/>
<feColorMatrix type="matrix" values="0 0 0 0 0.791667 0 0 0 0 0.504028 0 0 0 0 0 0 0 0 0.9 0"/>
<feBlend mode="normal" in2="shape" result="effect2_innerShadow"/>
<feColorMatrix in="SourceAlpha" type="matrix" values="0 0 0 0 0 0 0 0 0 0 0 0 0 0 0 0 0 0 127 0" result="hardAlpha"/>
<feOffset dx="-1" dy="1"/>
<feGaussianBlur stdDeviation="0.5"/>
<feComposite in2="hardAlpha" operator="arithmetic" k2="-1" k3="1"/>
<feColorMatrix type="matrix" values="0 0 0 0 1 0 0 0 0 1 0 0 0 0 1 0 0 0 0.5 0"/>
<feBlend mode="normal" in2="effect2_innerShadow" result="effect3_innerShadow"/>
</filter>
<radialGradient id="paint0_radial" cx="0" cy="0" r="1" gradientUnits="userSpaceOnUse" gradientTransform="translate(-47.5141 152.514) rotate(90) scale(163.486)">
<stop offset="0.729167" stop-color="#633F00"/>
<stop offset="1" stop-color="#0F0900"/>
</radialGradient>
</defs>
</svg>
