<svg width="262" height="181" viewBox="0 0 262 181" fill="none" xmlns="http://www.w3.org/2000/svg">
<g filter="url(#filter0_dii)">
<path d="M13.2477 145.254C11.7219 148.195 12.8653 151.827 15.8607 153.245C38.6777 164.04 63.7056 169.435 88.9973 168.973C116.291 168.474 143.028 161.17 166.785 147.723C190.542 134.276 210.566 115.112 225.042 91.9678C238.456 70.5215 246.713 46.2867 249.201 21.1677C249.528 17.8701 247.002 15.0203 243.695 14.8144L206.567 12.5037C203.259 12.2979 200.428 14.8151 200.049 18.1072C198.102 35.051 192.4 51.375 183.329 65.8774C173.196 82.0781 159.179 95.4931 142.549 104.906C125.92 114.319 107.204 119.432 88.0981 119.781C70.9953 120.093 54.0649 116.58 38.5355 109.528C35.5183 108.158 31.9026 109.29 30.3768 112.232L13.2477 145.254Z" fill="url(#paint0_radial)" fill-opacity="0.5"/>
</g>
<defs>
<filter id="filter0_dii" x="0.57312" y="0.491943" width="260.656" height="180.508" filterUnits="userSpaceOnUse" color-interpolation-filters="sRGB">
<feFlood flood-opacity="0" result="BackgroundImageFix"/>
<feColorMatrix in="SourceAlpha" type="matrix" values="0 0 0 0 0 0 0 0 0 0 0 0 0 0 0 0 0 0 127 0"/>
<feMorphology radius="8" operator="erode" in="SourceAlpha" result="effect1_dropShadow"/>
<feOffset/>
<feGaussianBlur stdDeviation="10"/>
<feColorMatrix type="matrix" values="0 0 0 0 0 0 0 0 0 0 0 0 0 0 0 0 0 0 0.2 0"/>
<feBlend mode="normal" in2="BackgroundImageFix" result="effect1_dropShadow"/>
<feBlend mode="normal" in="SourceGraphic" in2="effect1_dropShadow" result="shape"/>
<feColorMatrix in="SourceAlpha" type="matrix" values="0 0 0 0 0 0 0 0 0 0 0 0 0 0 0 0 0 0 127 0" result="hardAlpha"/>
<feOffset/>
<feGaussianBlur stdDeviation="10"/>
<feComposite in2="hardAlpha" operator="arithmetic" k2="-1" k3="1"/>
<feColorMatrix type="matrix" values="0 0 0 0 0.545833 0 0 0 0 0.545833 0 0 0 0 0.545833 0 0 0 0.9 0"/>
<feBlend mode="normal" in2="shape" result="effect2_innerShadow"/>
<feColorMatrix in="SourceAlpha" type="matrix" values="0 0 0 0 0 0 0 0 0 0 0 0 0 0 0 0 0 0 127 0" result="hardAlpha"/>
<feOffset dx="-1" dy="1"/>
<feGaussianBlur stdDeviation="0.5"/>
<feComposite in2="hardAlpha" operator="arithmetic" k2="-1" k3="1"/>
<feColorMatrix type="matrix" values="0 0 0 0 1 0 0 0 0 1 0 0 0 0 1 0 0 0 0.5 0"/>
<feBlend mode="normal" in2="effect2_innerShadow" result="effect3_innerShadow"/>
</filter>
<radialGradient id="paint0_radial" cx="0" cy="0" r="1" gradientUnits="userSpaceOnUse" gradientTransform="translate(85.4859 5.51411) rotate(90) scale(163.486)">
<stop offset="0.71875" stop-color="#9B9B9B"/>
<stop offset="1" stop-color="#382900"/>
</radialGradient>
</defs>
</svg>
