<svg width="45" height="45" viewBox="0 0 45 45" fill="none" xmlns="http://www.w3.org/2000/svg">
<mask id="mask0" mask-type="alpha" maskUnits="userSpaceOnUse" x="0" y="2" width="45" height="42">
<path opacity="0.92" d="M0.93335 20.2524C0.93335 18.6499 1.68006 17.1388 2.95306 16.1654L19.6746 3.37829C21.5194 1.96755 24.0806 1.96755 25.9254 3.37829L42.647 16.1654C43.92 17.1388 44.6667 18.6499 44.6667 20.2524V25.4575C44.6667 27.06 43.92 28.5711 42.647 29.5445L25.9254 42.3316C24.0806 43.7423 21.5194 43.7423 19.6746 42.3316L2.95306 29.5445C1.68006 28.5711 0.93335 27.06 0.93335 25.4575V20.2524Z" fill="#2B1F00"/>
</mask>
<g mask="url(#mask0)">
<g filter="url(#filter0_ii)">
<path d="M0.93335 18.9811C0.93335 18.1799 1.30671 17.4243 1.9432 16.9376L21.2373 2.18328C22.1597 1.47792 23.4403 1.47792 24.3627 2.18328L43.6568 16.9376C44.2933 17.4243 44.6667 18.1799 44.6667 18.9811V26.7288C44.6667 27.53 44.2933 28.2856 43.6568 28.7723L24.3627 43.5266C23.4403 44.232 22.1597 44.232 21.2373 43.5266L1.9432 28.7723C1.30671 28.2856 0.93335 27.53 0.93335 26.7288V18.9811Z" fill="url(#paint0_radial)" fill-opacity="0.8"/>
</g>
<g filter="url(#filter1_if)">
<path d="M44.6667 26.7288V22.9156C44.6667 20.7846 42.2242 19.5776 40.5315 20.8721L23.8099 33.6592C23.1734 34.1459 22.8 34.9014 22.8 35.7027V44.7216L43.6569 28.7723C44.2934 28.2855 44.6667 27.53 44.6667 26.7288Z" fill="url(#paint1_radial)" fill-opacity="0.8"/>
</g>
<g filter="url(#filter2_iif)">
<path d="M22.8 0.988281L0.93335 17.7099L19.6746 32.0414C21.5194 33.4521 24.0806 33.4521 25.9254 32.0414L44.6667 17.7099L22.8 0.988281Z" fill="url(#paint2_radial)" fill-opacity="0.9"/>
</g>
</g>
<defs>
<filter id="filter0_ii" x="-0.352925" y="1.65424" width="46.3059" height="43.6877" filterUnits="userSpaceOnUse" color-interpolation-filters="sRGB">
<feFlood flood-opacity="0" result="BackgroundImageFix"/>
<feBlend mode="normal" in="SourceGraphic" in2="BackgroundImageFix" result="shape"/>
<feColorMatrix in="SourceAlpha" type="matrix" values="0 0 0 0 0 0 0 0 0 0 0 0 0 0 0 0 0 0 127 0" result="hardAlpha"/>
<feOffset dx="1.28627" dy="1.28627"/>
<feGaussianBlur stdDeviation="10.2902"/>
<feComposite in2="hardAlpha" operator="arithmetic" k2="-1" k3="1"/>
<feColorMatrix type="matrix" values="0 0 0 0 0.414167 0 0 0 0 0.414167 0 0 0 0 0.414167 0 0 0 0.2 0"/>
<feBlend mode="normal" in2="shape" result="effect1_innerShadow"/>
<feColorMatrix in="SourceAlpha" type="matrix" values="0 0 0 0 0 0 0 0 0 0 0 0 0 0 0 0 0 0 127 0" result="hardAlpha"/>
<feOffset dx="-1.28627"/>
<feGaussianBlur stdDeviation="1.28627"/>
<feComposite in2="hardAlpha" operator="arithmetic" k2="-1" k3="1"/>
<feColorMatrix type="matrix" values="0 0 0 0 0.98 0 0 0 0 0.98 0 0 0 0 0.98 0 0 0 0.2 0"/>
<feBlend mode="normal" in2="effect1_innerShadow" result="effect2_innerShadow"/>
</filter>
<filter id="filter1_if" x="20.2275" y="17.7658" width="27.0118" height="29.5284" filterUnits="userSpaceOnUse" color-interpolation-filters="sRGB">
<feFlood flood-opacity="0" result="BackgroundImageFix"/>
<feBlend mode="normal" in="SourceGraphic" in2="BackgroundImageFix" result="shape"/>
<feColorMatrix in="SourceAlpha" type="matrix" values="0 0 0 0 0 0 0 0 0 0 0 0 0 0 0 0 0 0 127 0" result="hardAlpha"/>
<feOffset dx="-1.28627" dy="1.28627"/>
<feGaussianBlur stdDeviation="0.643137"/>
<feComposite in2="hardAlpha" operator="arithmetic" k2="-1" k3="1"/>
<feColorMatrix type="matrix" values="0 0 0 0 0.98 0 0 0 0 0.98 0 0 0 0 0.98 0 0 0 0.5 0"/>
<feBlend mode="normal" in2="shape" result="effect1_innerShadow"/>
<feGaussianBlur stdDeviation="1.28627" result="effect2_foregroundBlur"/>
</filter>
<filter id="filter2_iif" x="-0.352925" y="-0.297993" width="47.5922" height="35.97" filterUnits="userSpaceOnUse" color-interpolation-filters="sRGB">
<feFlood flood-opacity="0" result="BackgroundImageFix"/>
<feBlend mode="normal" in="SourceGraphic" in2="BackgroundImageFix" result="shape"/>
<feColorMatrix in="SourceAlpha" type="matrix" values="0 0 0 0 0 0 0 0 0 0 0 0 0 0 0 0 0 0 127 0" result="hardAlpha"/>
<feOffset dx="2.57255" dy="2.57255"/>
<feGaussianBlur stdDeviation="12.8627"/>
<feComposite in2="hardAlpha" operator="arithmetic" k2="-1" k3="1"/>
<feColorMatrix type="matrix" values="0 0 0 0 0.643333 0 0 0 0 0.643333 0 0 0 0 0.643333 0 0 0 0.2 0"/>
<feBlend mode="normal" in2="shape" result="effect1_innerShadow"/>
<feColorMatrix in="SourceAlpha" type="matrix" values="0 0 0 0 0 0 0 0 0 0 0 0 0 0 0 0 0 0 127 0" result="hardAlpha"/>
<feOffset dx="-2.57255"/>
<feGaussianBlur stdDeviation="0.643137"/>
<feComposite in2="hardAlpha" operator="arithmetic" k2="-1" k3="1"/>
<feColorMatrix type="matrix" values="0 0 0 0 0.98 0 0 0 0 0.98 0 0 0 0 0.98 0 0 0 0.8 0"/>
<feBlend mode="normal" in2="effect1_innerShadow" result="effect2_innerShadow"/>
<feGaussianBlur stdDeviation="0.643137" result="effect3_foregroundBlur"/>
</filter>
<radialGradient id="paint0_radial" cx="0" cy="0" r="1" gradientUnits="userSpaceOnUse" gradientTransform="translate(39.8841 35.2244) rotate(-161.19) scale(66.2871 1469.97)">
<stop stop-color="#FAFAFA"/>
<stop offset="1" stop-color="#FAFAFA"/>
</radialGradient>
<radialGradient id="paint1_radial" cx="0" cy="0" r="1" gradientUnits="userSpaceOnUse" gradientTransform="translate(41.451 28.6432) rotate(-173.454) scale(39.4888 63.5928)">
<stop stop-color="#EAEAEA"/>
<stop offset="0.0001" stop-color="#E9E9E9"/>
<stop offset="1" stop-color="#E4E4E4"/>
</radialGradient>
<radialGradient id="paint2_radial" cx="0" cy="0" r="1" gradientUnits="userSpaceOnUse" gradientTransform="translate(46.5961 20.2824) rotate(-165.964) scale(42.4276 24.7298)">
<stop stop-color="#FAFAFA"/>
<stop offset="1" stop-color="#F8F8F8"/>
</radialGradient>
</defs>
</svg>
